<?xml version="1.0" encoding="UTF-8" standalone="no"?>
<!DOCTYPE svg PUBLIC "-//W3C//DTD SVG 1.1//EN" "http://www.w3.org/Graphics/SVG/1.1/DTD/svg11.dtd">
<svg xmlns="http://www.w3.org/2000/svg" version="1.1" xmlns:xl="http://www.w3.org/1999/xlink" xmlns:dc="http://purl.org/dc/elements/1.1/" viewBox="223.22788 19.03067 701.4942 386.06577" width="701.4942" height="386.06577">
  <defs>
    <marker orient="auto" overflow="visible" markerUnits="strokeWidth" id="SharpArrow_Marker" stroke-linejoin="miter" stroke-miterlimit="10" viewBox="-3 -3 7 6" markerWidth="7" markerHeight="6" color="black">
      <g>
        <path d="M 2.5 0 L -1.5 -1.5 L 0 0 L 0 0 L -1.5 1.5 Z" fill="currentColor" stroke="currentColor" stroke-width="1"/>
      </g>
    </marker>
    <marker orient="auto" overflow="visible" markerUnits="strokeWidth" id="FilledArrow_Marker" stroke-linejoin="miter" stroke-miterlimit="10" viewBox="-1 -4 10 8" markerWidth="10" markerHeight="8" color="black">
      <g>
        <path d="M 8 0 L 0 -3 L 0 3 Z" fill="currentColor" stroke="currentColor" stroke-width="1"/>
      </g>
    </marker>
    <marker orient="auto" overflow="visible" markerUnits="strokeWidth" id="SharpArrow_Marker_2" stroke-linejoin="miter" stroke-miterlimit="10" viewBox="-6 -4 10 8" markerWidth="10" markerHeight="8" color="black">
      <g>
        <path d="M -5 0 L 3 3 L 0 0 L 0 0 L 3 -3 Z" fill="currentColor" stroke="currentColor" stroke-width="1"/>
      </g>
    </marker>
  </defs>
  <g id="Canvas_1" fill-opacity="1" fill="none" stroke-dasharray="none" stroke="none" stroke-opacity="1">
    <title>Canvas 1</title>
    <g id="Canvas_1_Layer_1">
      <title>Layer 1</title>
      <g id="Graphic_57">
        <a xl:href="https://en.wikipedia.org/wiki/Guru_Dutt">
          <text transform="translate(377.8364 24.03067)" fill="black">
            <tspan font-family="Helvetica Neue" font-weight="bold" font-size="16" fill="black" x="7247536e-19" y="16" xml:space="preserve">Guru Dutt</tspan>
          </text>
        </a>
      </g>
      <g id="Graphic_53">
        <a xl:href="https://en.wikipedia.org/wiki/Baazi_(1951_film)">
          <text transform="translate(394.0044 156.34493)" fill="black">
            <tspan font-family="Helvetica Neue" font-weight="bold" font-size="16" fill="black" x="0" y="16" xml:space="preserve">Baazi</tspan>
            <tspan font-family="Helvetica Neue" font-size="13" fill="black" x="3.209" y="31.46411" xml:space="preserve">(1951)</tspan>
          </text>
        </a>
      </g>
      <g id="Line_44">
        <line x1="415.0364" y1="48.49478" x2="415.0364" y2="146.94493" marker-end="url(#SharpArrow_Marker)" stroke="black" stroke-linecap="round" stroke-linejoin="round" stroke-width="1"/>
      </g>
      <g id="Graphic_37">
        <a xl:href="https://en.wikipedia.org/wiki/Geeta_Bali">
          <text transform="translate(602.4761 281.11887)" fill="black">
            <tspan font-family="Helvetica Neue" font-weight="bold" font-size="16" fill="black" x="0" y="16" xml:space="preserve">Geeta Bali</tspan>
          </text>
        </a>
      </g>
      <g id="Line_33">
        <line x1="659.8904" y1="276.11887" x2="764.57495" y2="191.26173" marker-end="url(#SharpArrow_Marker)" stroke="black" stroke-linecap="round" stroke-linejoin="round" stroke-width="1"/>
      </g>
      <g id="Graphic_26">
        <a xl:href="https://www.youtube.com/watch?v=cgwfvDh7cPc">
          <rect x="647.6126" y="159.02693" width="277.10947" height="29.46411" fill="#ffff40"/>
          <text transform="translate(652.6126 164.02693)" fill="black">
            <tspan font-family="Helvetica Neue" font-weight="bold" font-size="16" fill="black" x="45.418733" y="16" xml:space="preserve">Tadbeer Se Bigadi Huyi</tspan>
          </text>
        </a>
      </g>
      <g id="Line_23">
        <line x1="441.0684" y1="173.75899" x2="608.8578" y2="173.75899" marker-end="url(#FilledArrow_Marker)" stroke="black" stroke-linecap="round" stroke-linejoin="round" stroke-width="1"/>
      </g>
      <g id="Graphic_20">
        <a xl:href="https://en.wikipedia.org/wiki/S._D._Burman">
          <text transform="translate(804.5166 24.03067)" fill="black">
            <tspan font-family="Helvetica Neue" font-weight="bold" font-size="16" fill="black" x="0" y="16" xml:space="preserve">S D Burman</tspan>
          </text>
        </a>
      </g>
      <g id="Line_15">
        <line x1="843.4229" y1="48.49478" x2="794.7302" y2="155.02515" marker-end="url(#SharpArrow_Marker)" stroke="black" stroke-linecap="round" stroke-linejoin="round" stroke-width="1"/>
      </g>
      <g id="Graphic_12">
        <rect x="765.755" y="87.98499" width="108.112" height="24.335999" fill="white"/>
        <text transform="translate(770.755 92.98499)" fill="black">
          <tspan font-family="Helvetica Neue" font-style="italic" font-size="12" fill="black" x="19.392" y="11" xml:space="preserve"> Composer</tspan>
        </text>
      </g>
      <g id="Graphic_11">
        <a xl:href="https://en.wikipedia.org/wiki/Lata_Mangeshkar">
          <text transform="translate(623.7578 24.03067)" fill="black">
            <tspan font-family="Helvetica Neue" font-weight="bold" font-size="16" fill="black" x="0" y="16" xml:space="preserve">Geeta Roy</tspan>
          </text>
        </a>
      </g>
      <g id="Line_10">
        <line x1="676.3743" y1="48.49478" x2="770.3546" y2="155.71804" marker-end="url(#SharpArrow_Marker)" stroke="black" stroke-linecap="round" stroke-linejoin="round" stroke-width="1"/>
      </g>
      <g id="Graphic_9">
        <rect x="691.8405" y="84.65604" width="53.788" height="24.335999" fill="white"/>
        <text transform="translate(696.8405 89.65604)" fill="black">
          <tspan font-family="Helvetica Neue" font-style="italic" font-size="12" fill="black" x="4.673999" y="11" xml:space="preserve">Singer</tspan>
        </text>
      </g>
      <g id="Graphic_8">
        <rect x="693.6395" y="221.46163" width="37.336" height="24.335999" fill="white"/>
        <text transform="translate(698.6395 226.46163)" fill="black">
          <tspan font-family="Helvetica Neue" font-style="italic" font-size="12" fill="black" x="0" y="11" xml:space="preserve">actor</tspan>
        </text>
      </g>
      <g id="Graphic_7">
        <text transform="translate(583.91606 381.64844)" fill="black">
          <tspan font-family="Helvetica Neue" font-size="16" fill="black" x="0" y="15" xml:space="preserve">Shammi Kapoor</tspan>
        </text>
      </g>
      <g id="Line_6">
        <line x1="641.7161" y1="312.48298" x2="641.7161" y2="376.64844" marker-start="url(#SharpArrow_Marker_2)" stroke="black" stroke-linecap="round" stroke-linejoin="round" stroke-width="1"/>
      </g>
      <g id="Graphic_5">
        <rect x="606.70406" y="331.07403" width="70.024" height="24.335999" fill="white"/>
        <text transform="translate(611.70406 336.07403)" fill="black">
          <tspan font-family="Helvetica Neue" font-style="italic" font-size="12" fill="black" x="6252776e-19" y="11" xml:space="preserve">husband of</tspan>
        </text>
      </g>
      <g id="Group_2">
        <g id="Graphic_4">
          <a xl:href="https://www.youtube.com/watch?v=cbErQRZZNKY">
            <path d="M 642.9094 167.82161 C 642.6251 166.75962 641.7905 165.92506 640.7285 165.64078 C 638.8056 165.12502 631.09144 165.12502 631.09144 165.12502 C 631.09144 165.12502 623.37735 165.12502 621.4544 165.64078 C 620.3924 165.92506 619.55786 166.75962 619.2736 167.82161 C 618.7578 169.74455 618.7578 173.75899 618.7578 173.75899 C 618.7578 173.75899 618.7578 177.77344 619.2736 179.6964 C 619.55786 180.75838 620.3924 181.59294 621.4544 181.87717 C 623.37735 182.39296 631.09144 182.39296 631.09144 182.39296 C 631.09144 182.39296 638.8056 182.39296 640.7285 181.87717 C 641.7905 181.59294 642.6251 180.75838 642.9094 179.6964 C 643.42516 177.77344 643.42516 173.75899 643.42516 173.75899 C 643.42516 173.75899 643.4231 169.74455 642.9094 167.82161 Z" fill="red"/>
          </a>
        </g>
        <g id="Graphic_3">
          <a xl:href="https://www.youtube.com/watch?v=cbErQRZZNKY">
            <path d="M 628.6224 177.459 L 635.0309 173.75933 L 628.6224 170.05962 Z" fill="white"/>
          </a>
        </g>
      </g>
      <g id="Graphic_58">
        <a xl:href="https://en.wikipedia.org/wiki/Dev_Anand">
          <text transform="translate(296.78513 281.11887)" fill="black">
            <tspan font-family="Helvetica Neue" font-weight="bold" font-size="16" fill="black" x="7744916e-19" y="16" xml:space="preserve">Dev Anand</tspan>
          </text>
        </a>
      </g>
      <g id="Line_59">
        <line x1="338.13712" y1="276.11887" x2="395.5547" y2="199.6909" marker-end="url(#SharpArrow_Marker)" stroke="black" stroke-linecap="round" stroke-linejoin="round" stroke-width="1"/>
      </g>
      <g id="Graphic_60">
        <rect x="338.25206" y="217.72478" width="58.456" height="38.671997" fill="white"/>
        <text transform="translate(343.25206 222.72478)" fill="black">
          <tspan font-family="Helvetica Neue" font-style="italic" font-size="12" fill="black" x="10.668" y="11" xml:space="preserve">hero,</tspan>
          <tspan font-family="Helvetica Neue" font-style="italic" font-size="12" fill="black" x="0" y="25.336" xml:space="preserve">producer</tspan>
        </text>
      </g>
      <g id="Graphic_63">
        <a xl:href="https://en.wikipedia.org/wiki/Sahir_Ludhianvi">
          <text transform="translate(727.4953 281.11887)" fill="black">
            <tspan font-family="Helvetica Neue" font-weight="bold" font-size="16" fill="black" x="47606363e-20" y="16" xml:space="preserve">Sahir Ludhianvi</tspan>
          </text>
        </a>
      </g>
      <g id="Line_64">
        <line x1="786.1673" y1="276.11887" x2="786.1673" y2="192.89104" marker-end="url(#SharpArrow_Marker)" stroke="black" stroke-linecap="round" stroke-linejoin="round" stroke-width="1"/>
      </g>
      <g id="Graphic_65">
        <rect x="389.9284" y="87.40092" width="53.788" height="38.671997" fill="white"/>
        <text transform="translate(394.9284 92.40092)" fill="black">
          <tspan font-family="Helvetica Neue" font-style="italic" font-size="12" fill="black" x="5.226" y="11" xml:space="preserve">wrote,</tspan>
          <tspan font-family="Helvetica Neue" font-style="italic" font-size="12" fill="black" x="2309264e-19" y="25.336" xml:space="preserve">directed</tspan>
        </text>
      </g>
      <g id="Graphic_66">
        <rect x="764.2893" y="225.04794" width="43.756" height="24.335999" fill="white"/>
        <text transform="translate(769.2893 230.04794)" fill="black">
          <tspan font-family="Helvetica Neue" font-style="italic" font-size="12" fill="black" x="61106675e-20" y="11" xml:space="preserve">lyricist</tspan>
        </text>
      </g>
      <g id="Line_72">
        <line x1="457.2364" y1="33.762726" x2="618.7578" y2="33.762726" stroke="black" stroke-linecap="round" stroke-linejoin="round" stroke-dasharray="1.0,4.0" stroke-width="1"/>
      </g>
      <g id="Graphic_73">
        <title>path4</title>
        <path d="M 531.51136 29.56117 C 530.8111 28.394072 529.644 27.577103 528.2435 27.577103 C 526.2594 27.577103 524.7422 29.09433 524.7422 31.0784 C 524.7422 34.929825 526.84296 35.513374 531.51136 39.94835 C 536.17975 35.513374 538.28053 34.929825 538.28053 31.0784 C 538.28053 29.09433 536.7633 27.577103 534.77924 27.577103 C 533.3787 27.577103 532.2116 28.394072 531.51136 29.56117 Z" fill="#ff0707"/>
      </g>
      <g id="Graphic_74">
        <a xl:href="https://en.wikipedia.org/wiki/Kalpana_Kartik">
          <text transform="translate(476.01 271.3868)" fill="black">
            <tspan font-family="Helvetica Neue" font-weight="bold" font-size="16" fill="black" x="0" y="16" xml:space="preserve">Kalpana</tspan>
            <tspan font-family="Helvetica Neue" font-weight="bold" font-size="16" fill="black" x="8.296" y="35.46411" xml:space="preserve">Kartik</tspan>
          </text>
        </a>
      </g>
      <g id="Line_75">
        <line x1="471.01" y1="266.3868" x2="430.8565" y2="199.93887" marker-end="url(#SharpArrow_Marker)" stroke="black" stroke-linecap="round" stroke-linejoin="round" stroke-width="1"/>
      </g>
      <g id="Graphic_76">
        <rect x="427.423" y="223.09942" width="49.564" height="24.335999" fill="white"/>
        <text transform="translate(432.423 228.09942)" fill="black">
          <tspan font-family="Helvetica Neue" font-style="italic" font-size="12" fill="black" x="0" y="11" xml:space="preserve">heroine</tspan>
        </text>
      </g>
      <g id="Line_78">
        <line x1="384.48913" y1="290.85093" x2="471.01" y2="290.85093" stroke="black" stroke-linecap="round" stroke-linejoin="round" stroke-dasharray="1.0,4.0" stroke-width="1"/>
      </g>
      <g id="Graphic_77">
        <title>path4</title>
        <path d="M 424.2754 286.64937 C 423.57513 285.48227 422.40803 284.6653 421.0075 284.6653 C 419.02344 284.6653 417.5062 286.18253 417.5062 288.1666 C 417.5062 292.01802 419.607 292.60157 424.2754 297.03655 C 428.9438 292.60157 431.04456 292.01802 431.04456 288.1666 C 431.04456 286.18253 429.52733 284.6653 427.54326 284.6653 C 426.14274 284.6653 424.97564 285.48227 424.2754 286.64937 Z" fill="#ff0707"/>
      </g>
      <g id="Graphic_79">
        <text transform="translate(228.22788 24.03067)" fill="black">
          <tspan font-family="Helvetica Neue" font-size="16" fill="black" x="6679102e-19" y="15" xml:space="preserve">Balraj Sahni</tspan>
        </text>
      </g>
      <g id="Line_80">
        <line x1="285.4844" y1="47.47867" x2="388.89085" y2="148.2737" marker-end="url(#SharpArrow_Marker)" stroke="black" stroke-linecap="round" stroke-linejoin="round" stroke-width="1"/>
      </g>
      <g id="Graphic_81">
        <rect x="319.62566" y="88.08465" width="40" height="24.335999" fill="white"/>
        <text transform="translate(324.62566 93.08465)" fill="black">
          <tspan font-family="Helvetica Neue" font-style="italic" font-size="12" fill="black" x="17763568e-22" y="11" xml:space="preserve">wrote</tspan>
        </text>
      </g>
    </g>
  </g>
</svg>
